<svg width="22" height="22" viewBox="0 0 22 22" fill="none" xmlns="http://www.w3.org/2000/svg">
<path d="M14.6666 7.33331C16.1253 7.33331 17.5243 7.91278 18.5557 8.94423C19.5872 9.97568 20.1666 11.3746 20.1666 12.8333V19.25H16.5V12.8333C16.5 12.3471 16.3068 11.8808 15.963 11.537C15.6192 11.1931 15.1529 11 14.6666 11C14.1804 11 13.7141 11.1931 13.3703 11.537C13.0264 11.8808 12.8333 12.3471 12.8333 12.8333V19.25H9.16663V12.8333C9.16663 11.3746 9.74609 9.97568 10.7775 8.94423C11.809 7.91278 13.2079 7.33331 14.6666 7.33331V7.33331Z" stroke="#2193FC" stroke-width="2" stroke-linecap="round" stroke-linejoin="round"/>
<path d="M5.49992 8.25H1.83325V19.25H5.49992V8.25Z" stroke="#2193FC" stroke-width="2" stroke-linecap="round" stroke-linejoin="round"/>
<path d="M3.66659 5.49998C4.67911 5.49998 5.49992 4.67917 5.49992 3.66665C5.49992 2.65412 4.67911 1.83331 3.66659 1.83331C2.65406 1.83331 1.83325 2.65412 1.83325 3.66665C1.83325 4.67917 2.65406 5.49998 3.66659 5.49998Z" stroke="#2193FC" stroke-width="2" stroke-linecap="round" stroke-linejoin="round"/>
</svg>
