<svg width="32" height="32" viewBox="0 0 32 32" fill="none" xmlns="http://www.w3.org/2000/svg">
<path d="M21.3333 10.6667C23.455 10.6667 25.4898 11.5095 26.9901 13.0098C28.4904 14.5101 29.3333 16.5449 29.3333 18.6667V28H23.9999V18.6667C23.9999 17.9594 23.719 17.2811 23.2189 16.781C22.7188 16.281 22.0405 16 21.3333 16C20.626 16 19.9477 16.281 19.4476 16.781C18.9475 17.2811 18.6666 17.9594 18.6666 18.6667V28H13.3333V18.6667C13.3333 16.5449 14.1761 14.5101 15.6764 13.0098C17.1767 11.5095 19.2115 10.6667 21.3333 10.6667V10.6667Z" stroke="white" stroke-width="2" stroke-linecap="round" stroke-linejoin="round"/>
<path d="M8.00008 12H2.66675V28H8.00008V12Z" stroke="white" stroke-width="2" stroke-linecap="round" stroke-linejoin="round"/>
<path d="M5.33341 8C6.80617 8 8.00008 6.80609 8.00008 5.33333C8.00008 3.86057 6.80617 2.66667 5.33341 2.66667C3.86066 2.66667 2.66675 3.86057 2.66675 5.33333C2.66675 6.80609 3.86066 8 5.33341 8Z" stroke="white" stroke-width="2" stroke-linecap="round" stroke-linejoin="round"/>
</svg>
